<svg width="187" height="187" viewBox="0 0 187 187" fill="none" xmlns="http://www.w3.org/2000/svg">
<path d="M93.5763 186.122C92.9553 186.122 92.4531 185.62 92.4531 184.999C92.4531 184.378 92.9553 183.876 93.5763 183.876C143.651 183.876 184.39 143.138 184.39 93.0629C184.39 42.9881 143.651 2.24665 93.5763 2.24665C92.9553 2.24665 92.4531 1.74448 92.4531 1.12345C92.4531 0.502418 92.9553 0.000244141 93.5763 0.000244141C144.89 0.000244141 186.636 41.746 186.636 93.0599C186.636 144.377 144.89 186.122 93.5763 186.122Z" fill="#2BB1EA"/>
<path d="M92.45 184.999C92.45 184.369 92.967 183.873 93.5791 183.873C94.2091 183.873 94.7053 184.372 94.7053 184.999C94.7053 185.611 94.2091 186.128 93.5791 186.128C92.9641 186.128 92.45 185.611 92.45 184.999ZM87.5204 185.938C86.9083 185.882 86.4328 185.365 86.4715 184.735C86.5101 184.123 87.045 183.644 87.6571 183.686C88.287 183.724 88.7446 184.259 88.706 184.889C88.6882 185.481 88.1711 185.938 87.5976 185.938C87.5768 185.938 87.5382 185.938 87.5204 185.938ZM81.4824 185.347C80.8703 185.27 80.4305 184.699 80.5078 184.087C80.6029 183.475 81.1585 183.038 81.7677 183.112C82.3976 183.19 82.8166 183.763 82.7423 184.372C82.668 184.946 82.1896 185.347 81.634 185.347C81.5775 185.347 81.5389 185.347 81.4824 185.347ZM75.5039 184.372C74.8918 184.256 74.5114 183.665 74.6243 183.053C74.7402 182.441 75.3315 182.04 75.9436 182.156C76.5558 182.289 76.9361 182.863 76.8232 183.472C76.7281 184.025 76.2497 184.39 75.7148 184.39C75.6554 184.39 75.5782 184.39 75.5039 184.372ZM69.5996 182.993C68.9875 182.839 68.6458 182.23 68.7973 181.618C68.9489 181.026 69.5818 180.664 70.1731 180.833C70.7852 180.988 71.1269 181.597 70.9754 182.209C70.8417 182.708 70.3841 183.032 69.8849 183.032C69.7898 183.035 69.6947 183.035 69.5996 182.993ZM63.7934 181.255C63.2021 181.047 62.896 180.414 63.0862 179.823C63.2972 179.232 63.9271 178.926 64.5185 179.119C65.0919 179.327 65.4158 179.96 65.2257 180.551C65.0533 181.009 64.6135 181.315 64.1559 181.315C64.0401 181.315 63.9063 181.294 63.7934 181.255ZM58.118 179.119C57.5266 178.89 57.2592 178.218 57.5058 177.666C57.7346 177.092 58.3854 176.807 58.9767 177.057L58.9589 177.036C59.5324 177.282 59.8176 177.936 59.571 178.507C59.3987 178.946 58.9797 179.214 58.5399 179.214C58.3854 179.214 58.2517 179.175 58.118 179.119ZM52.5792 176.632C52.0265 176.346 51.7947 175.678 52.0622 175.122C52.3296 174.566 53.016 174.341 53.5717 174.608C54.1243 174.875 54.3531 175.562 54.0857 176.118C53.8747 176.519 53.4944 176.747 53.0725 176.747C52.9031 176.747 52.7307 176.709 52.5792 176.632ZM47.2276 173.767C46.672 173.461 46.5026 172.775 46.8087 172.24C47.1147 171.705 47.8011 171.515 48.336 171.821C48.8708 172.127 49.061 172.813 48.7579 173.366C48.5469 173.711 48.1666 173.922 47.7833 173.922C47.5931 173.922 47.4 173.883 47.2276 173.767ZM42.0722 170.576C41.5551 170.231 41.4036 169.545 41.7661 169.01C42.09 168.493 42.7972 168.359 43.3142 168.704C43.8313 169.048 43.962 169.735 43.6203 170.27C43.4093 170.594 43.0468 170.769 42.6843 170.769C42.4733 170.769 42.2623 170.712 42.0722 170.576ZM37.1218 167.061C36.6434 166.677 36.5483 165.97 36.9316 165.474C37.2941 164.978 38.0013 164.883 38.4975 165.266C38.9938 165.646 39.071 166.353 38.7085 166.832C38.4797 167.138 38.1558 167.289 37.8111 167.289C37.5823 167.292 37.3327 167.215 37.1218 167.061ZM32.4417 163.221C31.9633 162.803 31.9247 162.095 32.3258 161.635C32.727 161.156 33.4342 161.118 33.9126 161.519C34.3702 161.923 34.4296 162.627 34.0255 163.106C33.7967 163.355 33.4907 163.489 33.1668 163.489C32.8993 163.489 32.6527 163.412 32.4417 163.221ZM27.9905 159.097C27.5507 158.657 27.5507 157.932 27.9905 157.493C28.4303 157.053 29.1375 157.053 29.5773 157.493C30.017 157.932 30.017 158.64 29.5773 159.079C29.3663 159.308 29.081 159.424 28.7928 159.424C28.5075 159.421 28.2193 159.308 27.9905 159.097ZM23.8454 154.685C23.4234 154.206 23.462 153.499 23.9404 153.098C24.401 152.676 25.1052 152.735 25.5272 153.193C25.9283 153.65 25.8897 154.358 25.4321 154.78C25.2033 154.97 24.9537 155.065 24.6892 155.065C24.3624 155.065 24.0563 154.931 23.8454 154.685ZM19.9676 150.002C19.9676 150.002 19.9676 150.002 19.9676 150.019C19.5873 149.523 19.6824 148.816 20.1786 148.433C20.657 148.049 21.3642 148.144 21.7445 148.623V148.644C22.1249 149.122 22.0298 149.829 21.5544 150.21C21.3434 150.361 21.0968 150.438 20.868 150.438C20.5203 150.441 20.1964 150.287 19.9676 150.002ZM16.4138 145.111C16.0691 144.597 16.2028 143.889 16.7198 143.545C17.2369 143.2 17.9233 143.334 18.2858 143.848C18.6305 144.365 18.4968 145.054 17.9797 145.396C17.7896 145.53 17.5608 145.586 17.3498 145.586C16.9873 145.589 16.6426 145.417 16.4138 145.111ZM13.1868 139.973C12.8807 139.438 13.0531 138.749 13.5879 138.446C14.1228 138.119 14.8122 138.312 15.1361 138.847C15.4421 139.382 15.2698 140.068 14.7349 140.374C14.5447 140.487 14.3516 140.529 14.1614 140.529C13.7781 140.526 13.3948 140.335 13.1868 139.973ZM10.3015 134.66C10.0341 134.087 10.2629 133.418 10.8185 133.151C11.3712 132.862 12.0428 133.094 12.3102 133.647C12.5955 134.199 12.3667 134.871 11.814 135.156C11.6624 135.233 11.4901 135.272 11.3178 135.272C10.8928 135.272 10.5095 135.043 10.3015 134.66ZM7.77876 129.16C7.52916 128.586 7.79659 127.918 8.37008 127.689C8.94357 127.439 9.61214 127.71 9.84095 128.283C10.0905 128.857 9.82014 129.505 9.24963 129.754C9.09808 129.811 8.96437 129.852 8.80985 129.852C8.37008 129.849 7.95111 129.579 7.77876 129.16ZM5.6007 123.505C5.41052 122.911 5.71658 122.284 6.3079 122.073C6.88139 121.862 7.53213 122.186 7.72231 122.762C7.93328 123.354 7.62722 124.004 7.03293 124.195C6.91705 124.233 6.78333 124.251 6.67042 124.251C6.21281 124.248 5.77304 123.963 5.6007 123.505ZM3.82377 117.717C3.65143 117.126 3.99612 116.496 4.60526 116.341C5.19658 116.169 5.8087 116.513 5.98104 117.126C6.13556 117.717 5.79087 118.329 5.19658 118.501C5.10149 118.519 4.98561 118.54 4.89052 118.54C4.39726 118.537 3.95749 118.213 3.82377 117.717ZM2.40937 111.813C2.27565 111.2 2.6768 110.609 3.28892 110.493C3.88023 110.36 4.47452 110.761 4.60824 111.373C4.72412 111.967 4.34081 112.579 3.72869 112.692C3.65143 112.71 3.57715 112.71 3.49989 112.71C2.98286 112.71 2.52525 112.347 2.40937 111.813ZM1.37828 105.834C1.30102 105.222 1.72297 104.669 2.35291 104.574C2.96503 104.497 3.51772 104.919 3.6128 105.528C3.69006 106.158 3.26812 106.714 2.65897 106.809C2.60251 106.809 2.54308 106.809 2.50743 106.809C1.95177 106.806 1.47336 106.405 1.37828 105.834ZM0.748332 99.8139C0.709704 99.184 1.17028 98.6491 1.80022 98.6105C2.41234 98.5718 2.9472 99.0294 3.00366 99.6624C3.04229 100.274 2.58171 100.809 1.95474 100.848C1.93394 100.848 1.91611 100.848 1.87748 100.848C1.30102 100.845 0.80479 100.408 0.748332 99.8139ZM0.519531 93.7581C0.519531 93.1282 1.01576 92.6319 1.62788 92.6319C2.25782 92.6319 2.75703 93.1282 2.77486 93.7403C2.77486 94.3702 2.27862 94.8664 1.64868 94.8664C1.01576 94.8664 0.519531 94.3702 0.519531 93.7581ZM1.72297 88.8879C1.11085 88.8493 0.632446 88.3144 0.671075 87.7023C0.709704 87.0723 1.22673 86.6118 1.85668 86.6326C2.4688 86.6712 2.9472 87.2061 2.90857 87.836C2.86994 88.4273 2.37371 88.8849 1.77942 88.8849C1.76159 88.8879 1.74079 88.8879 1.72297 88.8879ZM2.18057 82.9094C1.56845 82.8529 1.13165 82.2794 1.20593 81.6673C1.28319 81.0582 1.83588 80.6184 2.46583 80.6927C3.07794 80.7699 3.51474 81.3226 3.44046 81.9347C3.3632 82.5082 2.88777 82.9272 2.33211 82.9272C2.27565 82.9272 2.24 82.9272 2.18057 82.9094ZM3.04229 76.9843C2.43017 76.8714 2.02902 76.2801 2.14491 75.668C2.2608 75.0558 2.83428 74.6547 3.44343 74.7706C4.05555 74.8835 4.45669 75.4778 4.34081 76.0869C4.24572 76.6218 3.76732 77.0051 3.25029 77.0051C3.17303 77.0051 3.09874 77.0051 3.04229 76.9843ZM4.26355 71.1217C3.67223 70.9701 3.30972 70.358 3.46126 69.7667C3.6128 69.1545 4.22492 68.792 4.81921 68.9436C5.43132 69.0951 5.79384 69.728 5.63933 70.3194C5.50561 70.8334 5.04801 71.1603 4.55178 71.1603C4.45372 71.1573 4.35863 71.1573 4.26355 71.1217ZM5.86813 65.3511C5.27681 65.1609 4.97075 64.531 5.16092 63.9397C5.3511 63.3454 5.98401 63.0393 6.57533 63.2325C7.16665 63.4226 7.49351 64.0526 7.30036 64.6439C7.14882 65.1223 6.68824 65.4284 6.23064 65.4284C6.11773 65.4254 5.98401 65.4076 5.86813 65.3511ZM7.87385 59.6965C7.30036 59.4677 7.0151 58.8169 7.2439 58.2464C7.47271 57.6729 8.14128 57.3876 8.71477 57.6164C9.28826 57.8452 9.55569 58.5138 9.32689 59.0873C9.15454 59.5271 8.73557 59.7915 8.29579 59.7915C8.14128 59.7915 8.00757 59.7529 7.87385 59.6965ZM10.2243 54.1933C9.67157 53.9259 9.44277 53.2395 9.70723 52.6838C9.97466 52.1312 10.6432 51.8994 11.1989 52.1698C11.7516 52.4372 12.0012 53.1058 11.7338 53.6585C11.5228 54.0596 11.1216 54.3092 10.7205 54.3092C10.5481 54.3092 10.3758 54.2706 10.2243 54.1933ZM12.9372 48.8447C12.4023 48.5387 12.2092 47.8493 12.5152 47.3174C12.8213 46.7826 13.5077 46.5924 14.0426 46.8955C14.5774 47.2015 14.7706 47.8701 14.4645 48.4258C14.2535 48.7883 13.891 48.9993 13.4899 48.9993C13.2997 48.9963 13.1095 48.9398 12.9372 48.8447ZM15.9918 43.6863C15.4748 43.3446 15.3233 42.6552 15.6679 42.1412C16.0126 41.6063 16.7198 41.4726 17.2339 41.8173C17.7509 42.1412 17.8817 42.8484 17.5578 43.3624C17.329 43.6863 16.9843 43.8795 16.6039 43.8795C16.393 43.8795 16.185 43.82 15.9918 43.6863ZM19.3733 38.7389C18.8771 38.3764 18.782 37.6691 19.1624 37.1729C19.5249 36.6767 20.2321 36.5816 20.7283 36.9441C21.2245 37.3274 21.3196 38.0346 20.9571 38.5309C20.7283 38.8191 20.4015 38.9706 20.0597 38.9706C19.8131 38.9677 19.5843 38.8904 19.3733 38.7389ZM23.0817 34.0202C22.6033 33.6191 22.5647 32.9119 22.9688 32.4543C23.3699 31.9759 24.0771 31.9194 24.5526 32.3206C25.0131 32.7217 25.0696 33.4289 24.6684 33.9073C24.4396 34.1747 24.1336 34.3084 23.8097 34.3084C23.5571 34.3055 23.2927 34.2104 23.0817 34.0202ZM27.0753 29.569C26.6355 29.1292 26.6177 28.422 27.0545 27.9822C27.4943 27.5246 28.2015 27.5246 28.6591 27.9644C29.0989 28.4012 29.0989 29.1084 28.6591 29.5512C28.4481 29.78 28.1421 29.8959 27.8568 29.8959C27.5715 29.8929 27.3041 29.777 27.0753 29.569ZM31.3542 25.3644C30.9352 24.9068 30.9738 24.1996 31.4314 23.7777C31.892 23.3765 32.6171 23.3943 33.0182 23.8727C33.4401 24.3303 33.4015 25.0375 32.9409 25.4595C32.73 25.6526 32.4625 25.7477 32.1951 25.7477C31.8682 25.7477 31.5652 25.614 31.3542 25.3644ZM35.8797 21.4688C35.4964 20.9726 35.5944 20.2654 36.0699 19.8821C36.5661 19.4988 37.2733 19.576 37.6566 20.0752C38.037 20.5536 37.9419 21.2579 37.4664 21.659C37.2555 21.8106 37.0088 21.8878 36.7592 21.8878C36.4354 21.8878 36.1115 21.7363 35.8797 21.4688ZM40.6578 17.8585C40.3131 17.3415 40.4468 16.6551 40.943 16.2926C41.4601 15.9479 42.1673 16.0816 42.509 16.5808C42.8715 17.0949 42.7378 17.8021 42.2207 18.1468C42.0306 18.2805 41.8018 18.3399 41.5908 18.3399C41.2313 18.3369 40.8866 18.1646 40.6578 17.8585ZM45.6617 14.5721C45.3556 14.0373 45.528 13.3509 46.0628 13.024C46.0628 13.024 46.0628 13.024 46.042 13.024C46.5977 12.7179 47.2841 12.8903 47.5901 13.4252C47.914 13.96 47.7447 14.6464 47.2098 14.9525C47.0196 15.0684 46.8265 15.104 46.6363 15.104C46.256 15.107 45.8727 14.9168 45.6617 14.5721ZM50.8795 11.6096C50.5943 11.0569 50.8023 10.3883 51.3579 10.1001C51.9136 9.81485 52.6 10.0436 52.8674 10.5963C53.1527 11.152 52.9239 11.8206 52.389 12.1058C52.2167 12.1831 52.0443 12.2217 51.872 12.2217C51.4709 12.2217 51.0697 12.0107 50.8795 11.6096ZM56.246 9.01256C55.9964 8.43907 56.2638 7.7705 56.8373 7.54169C57.4108 7.29209 58.0793 7.54169 58.3081 8.11518C58.5548 8.68867 58.2873 9.35725 57.7168 9.60685C57.5831 9.66331 57.4286 9.6841 57.277 9.6841C56.8402 9.68113 56.4391 9.43153 56.246 9.01256ZM61.7877 6.75723C61.5767 6.16592 61.8828 5.53597 62.4741 5.325C63.0654 5.117 63.6983 5.42008 63.9063 6.01437C64.1173 6.58786 63.8112 7.23564 63.2199 7.44661C63.104 7.48524 62.9703 7.50307 62.8574 7.50307C62.3968 7.50307 61.9571 7.21781 61.7877 6.75723ZM67.481 4.86443C67.3086 4.27311 67.6533 3.66099 68.2446 3.48865C68.8568 3.3163 69.4689 3.66099 69.6382 4.25231C69.8106 4.86145 69.4659 5.47357 68.8568 5.64591C68.7617 5.66671 68.6666 5.68454 68.5507 5.68454C68.0723 5.68751 67.6117 5.36363 67.481 4.86443ZM73.2664 3.3579C73.1327 2.76362 73.5338 2.1515 74.1251 2.02076C74.7372 1.90487 75.3286 2.28818 75.4623 2.9003C75.596 3.50945 75.2127 4.10374 74.6035 4.23745C74.5263 4.23745 74.452 4.25528 74.3747 4.25528C73.8428 4.25528 73.3823 3.89276 73.2664 3.3579ZM79.1528 2.22876C79.0577 1.61961 79.4975 1.04315 80.1066 0.968865C80.7188 0.870807 81.2922 1.29275 81.3665 1.90487C81.4616 2.53481 81.0426 3.1083 80.4305 3.18556C80.3741 3.20636 80.3176 3.20636 80.2582 3.20636C79.7263 3.20636 79.2301 2.80522 79.1528 2.22876ZM85.0957 1.50372C85.0392 0.873778 85.5147 0.338919 86.1268 0.30029C86.7389 0.243833 87.2916 0.701435 87.3302 1.33138C87.3867 1.9435 86.9291 2.47539 86.2991 2.53481C86.2783 2.53481 86.2427 2.53481 86.2219 2.53481C85.6276 2.53481 85.1313 2.09801 85.0957 1.50372ZM91.0742 1.14121C91.0534 0.529091 91.5526 0.0150315 92.1826 0.0150315C92.7947 -0.00576862 93.3087 0.493434 93.3087 1.12041C93.3266 1.73253 92.8303 2.24956 92.2212 2.24956C92.2004 2.24956 92.2004 2.24956 92.2004 2.24956C91.5883 2.24956 91.0742 1.77115 91.0742 1.14121Z" fill="#006EEF"/>
</svg>
