<svg xmlns="http://www.w3.org/2000/svg" xmlns:xlink="http://www.w3.org/1999/xlink" id="Layer_1" x="0px" y="0px" width="1500px" height="598.468px" viewBox="0 0 1500 598.468" xml:space="preserve">
<g>
	<g>
		<path fill-rule="evenodd" clip-rule="evenodd" fill="#181619" d="M369.109,244.924c-1.012,0-1.692,0-2.369,0    c-13.047,0-26.09,0.019-39.138-0.008c-11.681-0.022-20.413-5.135-26.228-15.276c-9.806-17.105-24.536-27.239-43.864-30.685    c-14.822-2.646-29.641-2.811-44.197,1.511c-20.564,6.11-34.848,19.565-44.15,38.623c-6.742,13.805-10.167,28.497-11.602,43.725    c-1.334,14.109-1.107,28.206,0.533,42.266c1.755,15.048,5.028,29.758,13.856,42.39c12.867,18.403,30.362,28.584,53.326,28.095    c0.837-0.018,1.67-0.004,2.603-0.004c-0.066,0.258-0.058,0.513-0.179,0.63c-11.751,11.568-24.311,22.059-39.439,29.025    c-8.03,3.697-16.398,5.945-25.354,5.488c-10.021-0.518-18.604-4.462-25.756-11.295c-11.335-10.841-19.725-23.825-26.402-37.925    c-7.673-16.199-12.151-33.334-14.423-51.079c-2.253-17.579-2.467-35.19-0.857-52.818c2.513-27.48,9.555-53.553,25.301-76.624    c20.759-30.417,49.351-49.051,85.743-54.984c31.204-5.087,62.007-3.053,91.588,8.729c39.576,15.755,62.5,45.37,70.464,86.928    C368.749,242.607,368.889,243.585,369.109,244.924z"></path>
		<path fill-rule="evenodd" clip-rule="evenodd" fill="#3AB8EB" d="M295.498,339.4c-1.249,0-2.152,0-3.046,0    c-12.205-0.004-24.406,0.06-36.607-0.026c-14.243-0.095-27.739-11.075-29.695-25.083c-1.128-8.066-0.648-16.369-0.776-24.56    c-0.008-0.49,0.93-1.114,1.548-1.454c0.42-0.22,1.053-0.044,1.593-0.044c46.197,0,92.4,0.019,138.599-0.059    c2.369,0,2.917,0.622,2.913,2.935c-0.065,52.109-0.051,104.218-0.051,156.329c0,0.827,0,1.659,0,2.498    c-4.109,0-8.008,0.198-11.878-0.044c-7.125-0.446-14.162-1.497-20.952-3.907c-13.268-4.7-20.64-14.283-22.494-27.959    c-0.898-6.651-0.694-13.452-0.969-20.184c-0.054-1.302-0.005-2.604-0.55-4.296c-0.566,0.621-1.234,1.181-1.678,1.879    c-5.155,8.142-11.158,15.604-18.023,22.351c-17.508,17.203-37.946,29.258-61.999,34.75c-16.061,3.667-32.087,3.575-47.954-1.244    c-0.439-0.136-0.881-0.279-1.312-0.445c-0.121-0.048-0.213-0.184-0.55-0.484c1.274-0.471,2.391-0.901,3.511-1.303    c14.399-5.149,27.134-13.224,39.162-22.471c21.806-16.767,40.787-36.276,56.491-58.902c5.436-7.832,10.241-16.027,13.717-24.943    C294.876,341.757,295.104,340.727,295.498,339.4z"></path>
	</g>
	<g>
		<path fill="#181619" d="M541.601,327.338c3.104-0.584,6.106-1.354,8.997-2.307c2.892-0.955,5.599-2.085,8.119-3.413    c2.522-1.324,4.737-2.751,6.643-4.288v-35.712c0-0.922,0.231-1.673,0.691-2.258c0.464-0.585,1.188-0.879,2.17-0.879h4.701    c1.847,0,2.773,1.052,2.773,3.137v38.757c0,1.413-0.459,2.49-1.386,3.226c-5.599,4.308-11.933,7.828-19.007,10.564    c-7.073,2.736-14.64,4.105-22.692,4.105c-9.601,0-18.517-1.752-26.76-5.261c-8.243-3.505-15.409-8.303-21.5-14.393    c-6.088-6.089-10.87-13.221-14.343-21.405c-3.479-8.182-5.216-16.942-5.216-26.293s1.766-18.113,5.308-26.297    c3.531-8.181,8.365-15.313,14.482-21.401c6.121-6.091,13.301-10.892,21.545-14.397c8.243-3.506,17.038-5.26,26.385-5.26    c8.059,0,15.504,1.295,22.331,3.877c6.827,2.586,13.128,6.18,18.91,10.797c1.174,0.923,1.682,1.75,1.523,2.49    c-0.151,0.735-0.35,1.262-0.596,1.567l-2.862,3.877c-0.125,0.185-0.383,0.401-0.787,0.644c-0.396,0.25-0.842,0.372-1.335,0.372    c-0.739,0-1.445-0.25-2.126-0.739c-4.922-3.627-10.3-6.629-16.138-8.994c-5.849-2.366-12.123-3.558-18.822-3.558    c-7.938,0-15.397,1.494-22.375,4.477c-6.985,2.987-13.088,7.059-18.318,12.227c-5.228,5.164-9.348,11.208-12.36,18.134    c-3.016,6.916-4.523,14.309-4.523,22.185c0,7.813,1.508,15.206,4.523,22.188c3.013,6.981,7.133,13.073,12.36,18.271    c5.23,5.196,11.318,9.303,18.271,12.312c6.948,3.019,14.36,4.528,22.231,4.528C535.436,328.218,538.496,327.919,541.601,327.338"></path>
		<path fill="#181619" d="M606.233,284.573c0.489,6.275,2.09,12.117,4.797,17.532c2.708,5.415,6.228,10.138,10.564,14.162    c4.337,4.027,9.303,7.198,14.901,9.504c5.595,2.307,11.499,3.462,17.715,3.462c4.609,0,8.611-0.42,11.992-1.247    c3.384-0.831,6.371-1.895,8.952-3.186c2.583-1.291,4.859-2.707,6.826-4.241c1.968-1.541,3.813-3.012,5.535-4.432    c0.676-0.553,1.446-0.824,2.309-0.824c0.737,0,1.26,0.243,1.571,0.731l2.582,3.506c0.492,0.681,0.689,1.401,0.598,2.166    c-0.092,0.776-0.445,1.435-1.062,1.983c-2.645,2.344-5.414,4.451-8.304,6.326c-2.89,1.877-5.921,3.487-9.088,4.838    c-3.167,1.357-6.551,2.387-10.148,3.093c-3.602,0.71-7.46,1.066-11.579,1.066c-7.872,0-15.376-1.521-22.512-4.572    c-7.137-3.041-13.397-7.19-18.775-12.451c-5.385-5.263-9.659-11.41-12.826-18.454c-3.167-7.041-4.753-14.534-4.753-22.468    c0-7.993,1.538-15.553,4.617-22.648c3.071-7.106,7.271-13.319,12.591-18.642c5.319-5.319,11.535-9.534,18.638-12.639    c7.104-3.104,14.685-4.657,22.744-4.657c8.548,0,16.343,1.629,23.387,4.884c7.045,3.267,13.088,7.585,18.129,12.97    c5.045,5.378,8.969,11.517,11.766,18.403c2.803,6.89,4.199,13.935,4.199,21.125c0,3.141-1.694,4.708-5.074,4.708H606.233z     M636.956,235.581c-5.353,2.214-10.131,5.227-14.346,9.042c-4.216,3.818-7.718,8.272-10.517,13.382    c-2.804,5.105-4.628,10.513-5.492,16.236h94.848c-0.862-5.105-2.568-10.152-5.119-15.132c-2.555-4.981-5.843-9.476-9.872-13.47    c-4.032-3.999-8.782-7.225-14.252-9.686c-5.481-2.461-11.602-3.689-18.362-3.689C647.936,232.263,642.308,233.367,636.956,235.581    "></path>
		<path fill="#181619" d="M736.691,284.573c0.493,6.275,2.09,12.117,4.799,17.532c2.705,5.415,6.229,10.138,10.567,14.162    c4.334,4.027,9.301,7.198,14.899,9.504c5.598,2.307,11.498,3.462,17.719,3.462c4.607,0,8.607-0.42,11.989-1.247    c3.385-0.831,6.366-1.895,8.949-3.186c2.585-1.291,4.858-2.707,6.83-4.241c1.964-1.541,3.809-3.012,5.532-4.432    c0.677-0.553,1.446-0.824,2.311-0.824c0.737,0,1.26,0.243,1.566,0.731l2.582,3.506c0.496,0.681,0.692,1.401,0.602,2.166    c-0.094,0.776-0.447,1.435-1.062,1.983c-2.645,2.344-5.415,4.451-8.304,6.326c-2.894,1.877-5.922,3.487-9.09,4.838    c-3.168,1.357-6.553,2.387-10.147,3.093c-3.601,0.71-7.46,1.066-11.578,1.066c-7.877,0-15.379-1.521-22.512-4.572    c-7.139-3.041-13.395-7.19-18.778-12.451c-5.379-5.263-9.655-11.41-12.82-18.454c-3.171-7.041-4.755-14.534-4.755-22.468    c0-7.993,1.539-15.553,4.615-22.648c3.071-7.106,7.27-13.319,12.593-18.642c5.318-5.319,11.53-9.534,18.636-12.639    s14.686-4.657,22.744-4.657c8.55,0,16.341,1.629,23.389,4.884c7.04,3.267,13.086,7.585,18.131,12.97    c5.043,5.378,8.962,11.517,11.768,18.403c2.795,6.89,4.192,13.935,4.192,21.125c0,3.141-1.69,4.708-5.074,4.708H736.691z     M767.419,235.581c-5.352,2.214-10.136,5.227-14.352,9.042c-4.215,3.818-7.719,8.272-10.515,13.382    c-2.799,5.105-4.629,10.513-5.491,16.236h94.851c-0.864-5.105-2.571-10.152-5.122-15.132c-2.553-4.981-5.843-9.476-9.873-13.47    c-4.032-3.999-8.782-7.225-14.254-9.686c-5.478-2.461-11.594-3.689-18.359-3.689C778.398,232.263,772.771,233.367,767.419,235.581    "></path>
		<path fill="#181619" d="M899.077,268.242l55.451,63.665c0.487,0.557,0.767,1.123,0.833,1.703c0.057,0.589-0.021,1.111-0.235,1.571    c-0.218,0.46-0.537,0.831-0.968,1.107c-0.433,0.275-0.897,0.416-1.39,0.416h-6.454c-0.492,0-0.999-0.104-1.522-0.32    c-0.524-0.217-1.182-0.787-1.98-1.711l-51.024-59.509l-18.454,17.618v40.599c0,0.982-0.213,1.784-0.644,2.403    c-0.433,0.61-1.139,0.92-2.123,0.92h-5.626c-0.983,0-1.537-0.31-1.66-0.92c-0.124-0.619-0.188-1.421-0.188-2.403V193.784    c0-0.924,0.218-1.674,0.648-2.255c0.429-0.588,1.136-0.883,2.12-0.883h4.705c0.984,0,1.69,0.294,2.123,0.883    c0.431,0.582,0.644,1.332,0.644,2.255v85.806l56.006-54.249c0.738-0.74,1.4-1.185,1.983-1.339    c0.587-0.151,1.155-0.228,1.712-0.228h6.729c1.043,0,1.767,0.382,2.167,1.151c0.4,0.77,0.2,1.552-0.6,2.354L899.077,268.242z"></path>
		<path fill="#3AB8EB" d="M966.983,208.641c0-2.339,1.166-3.506,3.501-3.506h94.756c2.278,0,3.419,1.167,3.419,3.506v16.7    c0,2.398-1.141,3.597-3.419,3.597h-34.872v104.26c0,2.337-1.171,3.507-3.506,3.507h-19.009c-2.336,0-3.506-1.17-3.506-3.507    v-104.26h-33.863c-2.335,0-3.501-1.199-3.501-3.597V208.641z"></path>
		<path fill="#3AB8EB" d="M1149.666,304.871c0.371,0,0.734,0.082,1.106,0.232c0.368,0.153,0.706,0.444,1.019,0.879l9.037,11.068    c1.537,2.03,1.446,3.814-0.271,5.349c-6.709,5.853-13.338,10.034-19.886,12.555c-6.553,2.519-13.522,3.776-20.896,3.776    c-7.755,0-15.122-1.515-22.102-4.564c-6.98-3.042-13.131-7.194-18.455-12.455c-5.32-5.26-9.548-11.396-12.681-18.402    c-3.138-7.019-4.708-14.52-4.708-22.521c0-7.993,1.429-15.512,4.288-22.556c2.859-7.043,6.83-13.208,11.905-18.494    c5.075-5.29,11.116-9.476,18.131-12.551c7.012-3.075,14.671-4.616,22.976-4.616c4.119,0,8.349,0.508,12.681,1.523    c4.338,1.016,8.58,2.557,12.735,4.617c4.152,2.06,8.073,4.657,11.764,7.798c3.688,3.133,6.903,6.853,9.641,11.16    c2.737,4.304,4.918,9.21,6.555,14.716c1.626,5.504,2.442,11.644,2.442,18.403c0,1.972-0.122,3.542-0.371,4.709    c-0.239,1.166-0.706,2.078-1.383,2.718c-0.677,0.647-1.597,1.086-2.767,1.299c-1.173,0.214-2.678,0.324-4.517,0.324h-79.351    c0.921,3.995,2.422,7.636,4.524,10.932c2.082,3.289,4.594,6.085,7.515,8.392c2.917,2.309,6.195,4.093,9.826,5.355    c3.625,1.258,7.474,1.887,11.534,1.887c3.872,0,7.19-0.332,9.964-1.012c2.764-0.677,5.176-1.552,7.242-2.63    c2.06-1.078,3.873-2.247,5.443-3.506c1.573-1.262,3.121-2.442,4.659-3.549C1148.065,305.147,1148.863,304.871,1149.666,304.871     M1108.701,246.053c-3.327,1.258-6.356,3.001-9.093,5.212c-2.735,2.218-5.133,4.796-7.192,7.75    c-2.063,2.955-3.676,6.125-4.843,9.501h63.199c-1.288-3.562-2.966-6.841-5.028-9.821c-2.061-2.987-4.429-5.555-7.107-7.706    c-2.674-2.152-5.643-3.83-8.903-5.033c-3.259-1.195-6.733-1.795-10.421-1.795C1115.56,244.163,1112.02,244.792,1108.701,246.053"></path>
		<path fill="#3AB8EB" d="M1275.605,305.426c0.924,0,1.601,0.338,2.03,1.015l9.042,13.287c1.291,1.964,1.074,3.692-0.645,5.16    c-2.158,1.851-4.63,3.62-7.43,5.309c-2.799,1.696-5.813,3.185-9.041,4.477c-3.23,1.291-6.6,2.306-10.105,3.046    c-3.506,0.735-7.011,1.106-10.516,1.106c-7.997,0-15.53-1.478-22.604-4.432c-7.073-2.947-13.257-7.04-18.547-12.271    c-5.293-5.223-9.472-11.388-12.546-18.494c-3.08-7.108-4.613-14.84-4.613-23.204c0-8.123,1.533-15.699,4.613-22.743    c3.074-7.044,7.242-13.165,12.498-18.363c5.262-5.197,11.382-9.302,18.363-12.315c6.98-3.016,14.375-4.521,22.192-4.521    c7.753-0.059,14.64,1.092,20.665,3.461c6.025,2.365,11.656,5.672,16.883,9.913c0.803,0.68,1.229,1.354,1.295,2.03    c0.059,0.681-0.095,1.324-0.463,1.939l-9.042,13.93c-0.493,0.68-1.202,1.015-2.122,1.015c-0.735,0-1.416-0.213-2.026-0.644    c-4.249-3.322-8.436-5.646-12.548-6.967c-4.124-1.32-8.246-1.982-12.362-1.982c-4.37,0-8.567,0.875-12.603,2.63    c-4.021,1.75-7.597,4.197-10.7,7.338c-3.105,3.133-5.581,6.853-7.427,11.16c-1.843,4.308-2.766,9.046-2.766,14.206    c0,5.051,0.875,9.722,2.63,14.026c1.751,4.303,4.149,8.026,7.198,11.168c3.039,3.13,6.595,5.575,10.656,7.334    c4.054,1.75,8.42,2.626,13.099,2.626c2.645,0,5.149-0.275,7.522-0.827c2.357-0.556,4.564-1.296,6.596-2.218    c2.03-0.92,3.916-1.939,5.672-3.043c1.754-1.107,3.332-2.214,4.752-3.325C1273.881,305.707,1274.682,305.426,1275.605,305.426"></path>
		<path fill="#3AB8EB" d="M1379.311,276.458c0-4.124-0.459-7.972-1.387-11.535c-0.92-3.572-2.354-6.677-4.289-9.321    c-1.938-2.641-4.381-4.737-7.331-6.275c-2.958-1.534-6.43-2.306-10.428-2.306c-3.318,0-6.445,0.647-9.361,1.942    c-2.928,1.284-5.462,3.12-7.618,5.488c-2.152,2.365-3.845,5.252-5.072,8.67c-1.229,3.418-1.848,7.246-1.848,11.488v58.218    c0,1.174-0.306,2.107-0.92,2.817c-0.617,0.707-1.541,1.061-2.769,1.061h-18.359c-2.461,0-3.692-1.292-3.692-3.878V194.619    c0-2.583,1.231-3.877,3.692-3.877h18.359c1.166,0,2.078,0.364,2.726,1.107c0.644,0.74,0.963,1.659,0.963,2.771v42.165    c3.878-4.182,8.284-7.511,13.238-9.969c4.952-2.461,10.414-3.693,16.381-3.693c5.654,0,10.652,0.773,14.992,2.31    c4.338,1.534,8.123,3.602,11.35,6.184c3.229,2.582,5.917,5.595,8.073,9.038c2.151,3.443,3.888,7.092,5.212,10.936    c1.32,3.844,2.273,7.769,2.858,11.768c0.585,3.99,0.88,7.834,0.88,11.524v57.945c0,1.174-0.313,2.107-0.924,2.817    c-0.619,0.707-1.537,1.061-2.767,1.061h-18.362c-2.398,0-3.598-1.292-3.598-3.878V276.458z"></path>
	</g>
	<g>
		<path fill="#181619" d="M965.888,395.61h-4.056l-6.624-24.151l-6.625,24.151h-4.056l-8.563-29.942h4.146l6.669,24.959    l6.896-24.959h3.109l6.895,24.959l6.625-24.959h4.19L965.888,395.61z"></path>
		<path fill="#181619" d="M986.572,396.149c-3.274,0-5.948-1.056-8.021-3.165c-2.073-2.11-3.109-4.855-3.109-8.238    c0-3.172,1.021-5.857,3.064-8.058c2.043-2.199,4.597-3.3,7.661-3.3c3.214,0,5.761,1.101,7.639,3.3    c1.877,2.2,2.816,4.976,2.816,8.327v0.854h-17.575c0.149,2.125,0.924,3.905,2.32,5.342c1.397,1.437,3.223,2.155,5.476,2.155    c2.704,0,4.957-0.928,6.76-2.784l1.622,2.2C992.911,395.026,990.026,396.149,986.572,396.149z M993.287,383.354    c-0.03-1.824-0.661-3.479-1.893-4.96c-1.232-1.481-2.99-2.223-5.272-2.223c-2.163,0-3.869,0.734-5.115,2.2    c-1.247,1.467-1.915,3.128-2.006,4.982H993.287z"></path>
		<path fill="#181619" d="M1027.58,395.61h-13.7v-29.942h13.385c2.583,0,4.634,0.703,6.151,2.109    c1.517,1.407,2.275,3.248,2.275,5.521c0,1.796-0.511,3.315-1.532,4.557c-1.021,1.242-2.269,2.014-3.74,2.313    c1.592,0.239,2.967,1.077,4.124,2.514c1.156,1.437,1.734,3.053,1.734,4.849c0,2.424-0.773,4.377-2.32,5.858    C1032.409,394.87,1030.284,395.61,1027.58,395.61z M1026.634,378.641c1.651,0,2.929-0.449,3.83-1.347    c0.901-0.898,1.353-2.05,1.353-3.457c0-1.406-0.459-2.565-1.375-3.479c-0.917-0.912-2.186-1.369-3.808-1.369h-9.013v9.652    H1026.634z M1026.859,392.288c1.741,0,3.102-0.463,4.078-1.392c0.976-0.927,1.465-2.184,1.465-3.771    c0-1.437-0.489-2.656-1.465-3.659c-0.977-1.002-2.337-1.504-4.078-1.504h-9.238v10.325H1026.859z"></path>
		<path fill="#181619" d="M1045.471,395.61h-3.38v-21.683h3.38v3.457c2.073-2.634,4.491-3.951,7.256-3.951v3.457    c-0.541-0.06-0.978-0.09-1.308-0.09c-1.052,0-2.179,0.353-3.38,1.055c-1.201,0.704-2.058,1.504-2.568,2.402V395.61z"></path>
		<path fill="#181619" d="M1066.831,396.149c-3.274,0-5.948-1.056-8.021-3.165c-2.073-2.11-3.109-4.855-3.109-8.238    c0-3.172,1.021-5.857,3.064-8.058c2.043-2.199,4.597-3.3,7.661-3.3c3.214,0,5.761,1.101,7.639,3.3    c1.877,2.2,2.816,4.976,2.816,8.327v0.854h-17.575c0.149,2.125,0.924,3.905,2.32,5.342c1.397,1.437,3.223,2.155,5.476,2.155    c2.704,0,4.957-0.928,6.76-2.784l1.622,2.2C1073.17,395.026,1070.285,396.149,1066.831,396.149z M1073.546,383.354    c-0.03-1.824-0.661-3.479-1.893-4.96c-1.232-1.481-2.99-2.223-5.272-2.223c-2.163,0-3.869,0.734-5.115,2.2    c-1.247,1.467-1.915,3.128-2.006,4.982H1073.546z"></path>
		<path fill="#181619" d="M1099.322,395.61h-3.38v-2.469c-1.772,2.005-4.176,3.008-7.21,3.008c-1.983,0-3.74-0.644-5.272-1.931    c-1.532-1.286-2.299-3.037-2.299-5.252c0-2.305,0.751-4.07,2.254-5.298c1.501-1.227,3.273-1.841,5.317-1.841    c3.064,0,5.468,0.974,7.21,2.918v-3.905c0-1.406-0.511-2.514-1.532-3.322c-1.021-0.808-2.343-1.212-3.966-1.212    c-2.613,0-4.837,1.003-6.669,3.008l-1.577-2.334c2.313-2.395,5.212-3.592,8.697-3.592c2.493,0,4.521,0.6,6.084,1.796    c1.562,1.197,2.343,3.038,2.343,5.521V395.61z M1089.994,393.724c2.674,0,4.656-0.897,5.948-2.693v-4.13    c-1.322-1.766-3.305-2.648-5.948-2.648c-1.593,0-2.892,0.441-3.898,1.324s-1.51,2.013-1.51,3.39c0,1.406,0.503,2.552,1.51,3.434    C1087.103,393.284,1088.401,393.724,1089.994,393.724z"></path>
		<path fill="#181619" d="M1111.67,396.149c-3.245,0-4.867-1.69-4.867-5.073V376.89h-3.605v-2.963h3.605v-5.926h3.425v5.926h4.417    v2.963h-4.417v13.468c0,0.838,0.188,1.511,0.563,2.02c0.375,0.51,0.908,0.764,1.6,0.764c0.962,0,1.728-0.314,2.299-0.943    l0.991,2.56C1114.689,395.684,1113.353,396.149,1111.67,396.149z"></path>
		<path fill="#181619" d="M1137.492,395.61h-3.38v-14.275c0-1.825-0.421-3.104-1.262-3.839c-0.842-0.732-2.059-1.1-3.65-1.1    c-1.232,0-2.441,0.33-3.628,0.988c-1.188,0.658-2.111,1.451-2.771,2.379v15.847h-3.38v-29.942h3.38v11.402    c0.812-1.018,1.923-1.886,3.335-2.604c1.412-0.719,2.884-1.078,4.416-1.078c4.627,0,6.94,2.306,6.94,6.914V395.61z"></path>
		<path fill="#181619" d="M1154.12,396.149c-3.274,0-5.948-1.056-8.021-3.165c-2.073-2.11-3.109-4.855-3.109-8.238    c0-3.172,1.021-5.857,3.064-8.058c2.043-2.199,4.597-3.3,7.661-3.3c3.214,0,5.761,1.101,7.639,3.3    c1.877,2.2,2.816,4.976,2.816,8.327v0.854h-17.575c0.149,2.125,0.924,3.905,2.32,5.342c1.397,1.437,3.223,2.155,5.476,2.155    c2.704,0,4.957-0.928,6.76-2.784l1.622,2.2C1160.459,395.026,1157.574,396.149,1154.12,396.149z M1160.835,383.354    c-0.03-1.824-0.661-3.479-1.893-4.96c-1.232-1.481-2.99-2.223-5.272-2.223c-2.163,0-3.869,0.734-5.115,2.2    c-1.247,1.467-1.915,3.128-2.006,4.982H1160.835z"></path>
		<path fill="#181619" d="M1192.604,395.61h-3.74v-26.621h-9.509v-3.321h22.803v3.321h-9.554V395.61z"></path>
		<path fill="#181619" d="M1211.667,396.149c-3.274,0-5.948-1.056-8.021-3.165c-2.073-2.11-3.109-4.855-3.109-8.238    c0-3.172,1.021-5.857,3.064-8.058c2.043-2.199,4.597-3.3,7.661-3.3c3.214,0,5.761,1.101,7.639,3.3    c1.877,2.2,2.816,4.976,2.816,8.327v0.854h-17.575c0.149,2.125,0.924,3.905,2.32,5.342c1.397,1.437,3.223,2.155,5.476,2.155    c2.704,0,4.957-0.928,6.76-2.784l1.622,2.2C1218.006,395.026,1215.121,396.149,1211.667,396.149z M1218.382,383.354    c-0.03-1.824-0.661-3.479-1.893-4.96c-1.232-1.481-2.99-2.223-5.272-2.223c-2.163,0-3.869,0.734-5.115,2.2    c-1.247,1.467-1.915,3.128-2.006,4.982H1218.382z"></path>
		<path fill="#181619" d="M1236.768,396.149c-3.215,0-5.829-1.085-7.841-3.255c-2.014-2.17-3.02-4.886-3.02-8.148    c0-3.261,1.006-5.97,3.02-8.125c2.012-2.154,4.626-3.232,7.841-3.232c3.364,0,6.023,1.257,7.977,3.771l-2.253,2.02    c-1.353-1.854-3.2-2.783-5.543-2.783c-2.254,0-4.071,0.786-5.453,2.357s-2.073,3.568-2.073,5.992c0,2.455,0.691,4.467,2.073,6.038    s3.199,2.357,5.453,2.357c2.282,0,4.13-0.943,5.543-2.828l2.253,2.064C1242.791,394.891,1240.132,396.149,1236.768,396.149z"></path>
		<path fill="#181619" d="M1267.637,395.61h-3.38v-14.275c0-1.825-0.421-3.104-1.262-3.839c-0.842-0.732-2.059-1.1-3.65-1.1    c-1.232,0-2.441,0.33-3.628,0.988c-1.188,0.658-2.111,1.451-2.771,2.379v15.847h-3.38v-29.942h3.38v11.402    c0.812-1.018,1.923-1.886,3.335-2.604c1.412-0.719,2.884-1.078,4.416-1.078c4.627,0,6.94,2.306,6.94,6.914V395.61z"></path>
		<path fill="#181619" d="M1292.467,395.61h-3.335v-14.186c0-1.825-0.421-3.12-1.262-3.884c-0.842-0.763-2.059-1.145-3.65-1.145    c-1.262,0-2.479,0.33-3.65,0.988s-2.104,1.451-2.794,2.379v15.847h-3.38v-21.683h3.38v3.143c0.841-1.018,1.968-1.886,3.38-2.604    c1.412-0.719,2.884-1.078,4.416-1.078c4.597,0,6.896,2.335,6.896,7.003V395.61z"></path>
		<path fill="#181619" d="M1316.598,392.872c-1.968,2.185-4.574,3.277-7.818,3.277c-3.245,0-5.852-1.093-7.819-3.277    s-2.951-4.894-2.951-8.126c0-3.231,0.983-5.933,2.951-8.103s4.574-3.255,7.819-3.255c3.244,0,5.851,1.085,7.818,3.255    s2.952,4.871,2.952,8.103C1319.55,387.978,1318.565,390.687,1316.598,392.872z M1303.507,390.694    c1.291,1.632,3.049,2.447,5.272,2.447c2.223,0,3.98-0.815,5.272-2.447c1.291-1.631,1.938-3.613,1.938-5.948    c0-2.334-0.646-4.31-1.938-5.925c-1.292-1.616-3.05-2.425-5.272-2.425c-2.224,0-3.981,0.809-5.272,2.425    c-1.292,1.615-1.938,3.591-1.938,5.925C1301.568,387.081,1302.215,389.063,1303.507,390.694z"></path>
		<path fill="#181619" d="M1328.427,395.61h-3.38v-29.942h3.38V395.61z"></path>
		<path fill="#181619" d="M1352.514,392.872c-1.968,2.185-4.574,3.277-7.818,3.277c-3.245,0-5.852-1.093-7.819-3.277    s-2.951-4.894-2.951-8.126c0-3.231,0.983-5.933,2.951-8.103s4.574-3.255,7.819-3.255c3.244,0,5.851,1.085,7.818,3.255    s2.952,4.871,2.952,8.103C1355.466,387.978,1354.481,390.687,1352.514,392.872z M1339.423,390.694    c1.291,1.632,3.049,2.447,5.272,2.447c2.223,0,3.98-0.815,5.272-2.447c1.291-1.631,1.938-3.613,1.938-5.948    c0-2.334-0.646-4.31-1.938-5.925c-1.292-1.616-3.05-2.425-5.272-2.425c-2.224,0-3.981,0.809-5.272,2.425    c-1.292,1.615-1.938,3.591-1.938,5.925C1337.484,387.081,1338.131,389.063,1339.423,390.694z"></path>
		<path fill="#181619" d="M1369.705,404.409c-1.893,0-3.515-0.24-4.866-0.719c-1.353-0.479-2.659-1.332-3.921-2.559l1.712-2.424    c1.652,1.945,4.011,2.918,7.075,2.918c1.983,0,3.65-0.517,5.003-1.549c1.352-1.032,2.027-2.626,2.027-4.781v-3.277    c-0.841,1.168-1.908,2.104-3.199,2.807c-1.292,0.703-2.675,1.055-4.146,1.055c-2.884,0-5.22-1.01-7.007-3.03    c-1.788-2.021-2.682-4.751-2.682-8.192s0.894-6.18,2.682-8.216c1.787-2.034,4.123-3.053,7.007-3.053    c3.004,0,5.453,1.272,7.346,3.816v-3.277h3.38v21.368c0,3.172-0.984,5.484-2.951,6.936    C1375.195,403.683,1372.709,404.409,1369.705,404.409z M1370.246,392.872c1.292,0,2.539-0.337,3.74-1.01    c1.201-0.674,2.118-1.504,2.749-2.492v-9.517c-0.631-0.958-1.548-1.773-2.749-2.446c-1.201-0.674-2.448-1.011-3.74-1.011    c-2.163,0-3.875,0.764-5.138,2.29c-1.262,1.526-1.893,3.517-1.893,5.971c0,2.424,0.631,4.399,1.893,5.925    C1366.371,392.108,1368.083,392.872,1370.246,392.872z"></path>
		<path fill="#181619" d="M1385.703,404.094l0.496-3.053c0.541,0.239,1.156,0.359,1.848,0.359c0.78,0,1.427-0.165,1.938-0.494    s0.946-0.928,1.307-1.795l1.442-3.277l-9.104-21.907h3.695l7.211,17.777l7.255-17.777h3.65l-10.905,26.082    c-1.202,2.873-3.335,4.339-6.399,4.399C1387.205,404.409,1386.395,404.303,1385.703,404.094z"></path>
	</g>
</g>
</svg>